<?xml version="1.0" standalone="no"?>
<!DOCTYPE svg PUBLIC "-//W3C//DTD SVG 20010904//EN"
 "http://www.w3.org/TR/2001/REC-SVG-20010904/DTD/svg10.dtd">
<svg version="1.0" xmlns="http://www.w3.org/2000/svg"
 width="1024.000000pt" height="1024.000000pt" viewBox="0 0 1024.000000 1024.000000"
 preserveAspectRatio="xMidYMid meet">
<metadata>
Created by potrace 1.14, written by Peter Selinger 2001-2017
</metadata>
<g transform="translate(0.000000,1024.000000) scale(0.100000,-0.100000)"
fill="#000000" stroke="none">
<path d="M5215 9440 c-16 -4 -127 -32 -245 -63 -118 -31 -357 -92 -530 -136
-173 -44 -394 -100 -490 -125 -96 -24 -328 -83 -515 -131 -187 -47 -369 -94
-405 -104 -36 -10 -96 -26 -133 -36 -78 -20 -96 -40 -77 -85 13 -32 24 -35
225 -70 139 -24 254 -46 900 -170 121 -24 226 -49 234 -56 12 -11 9 -33 -19
-146 -18 -73 -50 -189 -72 -258 -23 -69 -40 -137 -40 -153 0 -19 -15 -45 -54
-90 -65 -73 -170 -229 -210 -309 -23 -48 -33 -58 -54 -58 -32 -1 -127 -40
-169 -70 -49 -34 -89 -96 -112 -170 -19 -62 -22 -67 -61 -80 -88 -32 -103 -93
-102 -425 1 -258 16 -386 52 -434 10 -15 39 -37 65 -51 30 -16 48 -33 52 -50
9 -38 63 -113 99 -137 17 -11 62 -31 100 -43 53 -18 72 -21 86 -12 16 10 26 1
79 -72 33 -46 103 -124 156 -174 52 -49 95 -94 95 -100 0 -5 -28 -19 -62 -32
-141 -50 -228 -116 -228 -172 0 -27 -13 -22 -32 12 -10 17 -24 33 -33 37 -23
8 -148 -30 -246 -76 l-84 -39 790 1 c792 2 1549 10 1465 16 -39 3 -42 4 -20
11 22 7 20 8 -15 10 -27 1 -34 4 -22 8 13 6 6 11 -30 21 -26 8 -57 20 -68 27
-11 6 -38 17 -60 24 -22 7 -86 35 -143 61 -57 27 -107 49 -111 49 -5 0 -14 7
-21 15 -7 8 -20 15 -30 15 -9 0 -25 9 -35 20 -10 11 -21 20 -25 20 -11 0 -132
59 -165 80 -16 11 -45 27 -62 37 -18 9 -33 22 -33 28 0 6 -16 17 -36 24 -19 7
-38 19 -41 27 -3 8 -10 14 -17 14 -6 0 -27 15 -48 33 -151 134 -178 160 -178
169 0 6 -23 35 -50 65 -28 31 -59 72 -70 92 -10 21 -31 51 -47 68 -25 27 -63
127 -63 168 0 8 -4 15 -8 15 -13 0 -42 103 -46 163 -1 5 -13 19 -28 30 -19 16
-33 44 -50 102 -21 73 -23 98 -22 295 1 164 5 234 18 295 22 98 37 145 49 145
4 0 6 4 3 8 -3 5 4 24 16 43 42 69 91 119 141 144 102 50 243 28 632 -100 110
-36 232 -71 271 -77 l70 -11 160 56 c87 30 238 83 334 116 96 34 233 78 303
98 86 24 125 39 118 46 -7 7 -15 6 -25 -2 -7 -6 -18 -10 -22 -9 -18 6 -163
-36 -157 -45 3 -6 1 -7 -5 -3 -10 6 -362 -103 -447 -138 -40 -17 -70 -7 -72
24 -1 14 -5 68 -10 120 -14 169 -8 465 12 565 16 86 53 189 78 223 36 47 101
100 135 110 57 17 150 15 207 -5 88 -32 229 -187 305 -338 14 -28 30 -54 37
-60 7 -5 19 -36 27 -68 9 -32 22 -73 31 -90 11 -23 12 -32 3 -38 -8 -5 -7 -15
4 -40 9 -18 14 -38 11 -44 -2 -7 7 -15 20 -19 14 -3 32 -8 40 -12 8 -3 17 1
20 9 4 10 -3 12 -25 9 -21 -3 -29 -1 -24 7 4 6 13 11 20 11 19 0 27 54 25 163
-1 96 7 146 25 160 7 6 4 7 -6 3 -20 -6 -23 6 -8 35 14 25 26 24 33 -3 12 -44
17 -9 8 48 -5 33 -6 62 -2 66 3 4 132 30 286 58 154 28 333 63 398 77 65 14
120 24 122 21 10 -10 6 -747 -4 -766 -17 -31 -13 -81 7 -107 18 -23 18 -25
-19 -100 -20 -43 -42 -105 -48 -140 -14 -80 -13 -297 2 -355 11 -41 16 -46 51
-55 34 -8 40 -7 57 14 19 23 19 23 19 2 0 -17 6 -21 30 -21 26 0 30 3 26 23
-3 12 -7 96 -10 187 -3 91 -9 218 -12 283 -7 111 -6 117 12 117 51 0 87 -162
99 -435 3 -77 7 -146 7 -152 1 -7 10 -13 20 -13 15 0 17 6 14 38 -3 20 -8 88
-11 149 -10 202 -65 403 -115 421 -21 8 -21 8 4 20 24 11 46 47 46 75 0 8 -3
8 -12 -1 -17 -17 -43 -15 -59 6 -12 14 -14 69 -8 352 3 184 12 408 19 497 12
156 8 237 -16 298 -8 20 -8 20 21 1 l30 -19 -20 22 c-35 40 -81 52 -187 50
-54 -1 -98 -4 -98 -5 0 -1 26 -10 57 -19 81 -24 112 -42 124 -71 14 -37 3 -45
-40 -29 -21 7 -150 41 -287 74 -137 34 -343 86 -459 116 -115 30 -273 70 -350
89 -77 19 -225 57 -330 86 -104 28 -233 62 -285 76 -173 46 -195 56 -195 87 1
26 -2 27 -45 26 -25 -1 -58 -4 -75 -9z m2097 -1920 c-5 -146 -7 -158 -15 -105
-10 75 4 288 18 273 2 -2 1 -77 -3 -168z m-3943 -696 c1 -131 -8 -236 -20
-228 -5 3 -9 -10 -9 -28 l-1 -33 -15 29 c-14 24 -15 59 -12 210 3 129 8 188
18 206 l13 25 13 -35 c7 -20 13 -84 13 -146z m73 10 l-9 -69 -2 80 c-1 56 2
76 10 68 7 -7 8 -32 1 -79z"/>
<path d="M7401 8924 c0 -11 3 -14 6 -6 3 7 2 16 -1 19 -3 4 -6 -2 -5 -13z"/>
<path d="M7409 8786 l-4 -118 64 6 c94 10 302 53 314 65 7 7 7 14 2 20 -9 8
-134 41 -275 71 -87 19 -89 19 -93 48 -2 15 -5 -26 -8 -92z"/>
<path d="M7392 8540 c0 -14 2 -19 5 -12 2 6 2 18 0 25 -3 6 -5 1 -5 -13z"/>
<path d="M7393 8435 c0 -27 2 -38 4 -22 2 15 2 37 0 50 -2 12 -4 0 -4 -28z"/>
<path d="M7383 8000 c0 -47 2 -66 4 -42 2 23 2 61 0 85 -2 23 -4 4 -4 -43z"/>
<path d="M6397 7879 c7 -7 15 -10 18 -7 3 3 -2 9 -12 12 -14 6 -15 5 -6 -5z"/>
<path d="M6443 7883 c9 -2 25 -2 35 0 9 3 1 5 -18 5 -19 0 -27 -2 -17 -5z"/>
<path d="M6358 7863 c6 -2 18 -2 25 0 6 3 1 5 -13 5 -14 0 -19 -2 -12 -5z"/>
<path d="M6278 7843 c7 -3 16 -2 19 1 4 3 -2 6 -13 5 -11 0 -14 -3 -6 -6z"/>
<path d="M7363 7678 c18 -71 28 -223 25 -365 -2 -89 0 -165 5 -169 4 -4 7 -16
7 -26 0 -13 7 -18 26 -18 19 0 24 4 20 18 -3 9 -6 71 -7 137 -1 66 -6 158 -11
205 -10 98 -46 240 -60 240 -6 0 -8 -10 -5 -22z"/>
<path d="M6947 7370 c10 -16 60 -95 110 -175 51 -80 102 -172 112 -203 17 -51
20 -53 20 -24 1 29 4 32 31 32 38 0 38 15 0 35 -21 11 -32 27 -40 58 -31 120
-54 178 -86 223 -25 34 -111 84 -145 84 -21 0 -21 0 -2 -30z"/>
<path d="M4536 7063 c-38 -10 -112 -56 -149 -92 -51 -48 -108 -166 -114 -239
-7 -71 21 -138 76 -183 49 -40 98 -51 205 -47 78 3 101 8 162 36 102 48 139
107 143 227 5 166 -97 293 -242 301 -34 1 -71 0 -81 -3z m198 -146 c42 -40 52
-76 37 -129 l-12 -40 -29 27 c-16 15 -41 52 -57 81 -27 52 -27 53 -9 73 25 27
28 27 70 -12z"/>
<path d="M5955 7047 c-59 -23 -93 -47 -128 -88 -95 -110 -88 -289 14 -386 47
-44 98 -63 171 -63 74 0 128 22 187 75 105 95 125 214 55 332 -16 26 -27 52
-25 58 1 5 -1 7 -5 2 -4 -4 -24 8 -43 26 -56 52 -155 72 -226 44z m222 -112
c22 -19 43 -46 47 -59 8 -30 -28 -116 -48 -116 -17 0 -73 64 -100 114 l-19 36
28 30 c16 17 34 30 40 30 6 0 30 -16 52 -35z"/>
<path d="M4246 6633 c-8 -53 -8 -85 2 -79 5 3 7 20 5 38 -3 31 -2 31 8 11 7
-13 16 -23 21 -23 11 0 11 2 -11 49 l-18 42 -7 -38z"/>
<path d="M6911 6183 c-1 -6 -4 -20 -7 -30 -5 -17 -5 -17 6 0 6 10 9 23 6 30
-3 9 -5 9 -5 0z"/>
<path d="M3231 5264 c-89 -44 -176 -129 -214 -208 -51 -103 -60 -174 -54 -426
7 -327 30 -351 42 -45 7 165 12 218 23 211 4 -2 6 14 3 37 -2 23 -8 45 -14 49
-6 4 -8 11 -3 15 5 4 11 2 13 -4 3 -7 18 -13 34 -13 29 0 29 1 30 58 0 54 1
56 15 35 9 -12 22 -19 30 -16 19 7 18 16 -6 43 -27 31 -26 50 3 42 12 -3 28
-12 35 -19 17 -17 27 -16 42 2 9 10 9 15 1 15 -6 0 -11 10 -11 23 0 18 -6 22
-30 23 -17 1 -30 -3 -30 -7 0 -5 -8 -9 -18 -9 -10 0 -23 -5 -30 -12 -9 -9 -12
-9 -12 0 0 7 5 12 11 12 6 0 9 6 6 13 -7 19 12 47 39 57 13 5 24 16 24 25 0
19 40 66 52 59 4 -3 8 -1 8 5 0 6 7 8 16 4 13 -5 13 -7 2 -14 -7 -5 -8 -9 -3
-9 6 0 16 4 23 9 11 7 11 9 -2 14 -22 9 -20 28 2 20 10 -4 14 -2 9 3 -5 5 8
16 30 26 21 9 31 17 22 17 -9 1 -49 -15 -88 -35z m-141 -233 c0 -6 -4 -13 -10
-16 -5 -3 -10 1 -10 9 0 9 5 16 10 16 6 0 10 -4 10 -9z m-50 -91 l-8 -35 -1
31 c-1 17 2 34 6 37 11 12 12 3 3 -33z m-23 -117 c-3 -10 -5 -4 -5 12 0 17 2
24 5 18 2 -7 2 -21 0 -30z"/>
<path d="M3958 5253 c23 -2 61 -2 85 0 23 2 4 4 -43 4 -47 0 -66 -2 -42 -4z"/>
<path d="M4168 5253 c29 -2 74 -2 100 0 26 2 2 3 -53 3 -55 0 -76 -1 -47 -3z"/>
<path d="M4960 5250 c0 -6 -33 -10 -80 -10 -44 0 -80 -4 -80 -9 0 -5 89 -8
203 -7 111 0 165 2 120 4 -65 2 -83 6 -83 17 0 11 -12 15 -40 15 -22 0 -40 -4
-40 -10z"/>
<path d="M5200 5250 c0 -5 7 -7 15 -4 8 4 15 8 15 10 0 2 -7 4 -15 4 -8 0 -15
-4 -15 -10z"/>
<path d="M4115 5230 c-4 -6 32 -10 99 -10 64 0 106 4 106 10 0 6 -40 10 -99
10 -56 0 -103 -4 -106 -10z"/>
<path d="M3938 5223 c12 -2 32 -2 45 0 12 2 2 4 -23 4 -25 0 -35 -2 -22 -4z"/>
<path d="M4418 5223 c12 -2 32 -2 45 0 12 2 2 4 -23 4 -25 0 -35 -2 -22 -4z"/>
<path d="M3368 5203 c6 -2 18 -2 25 0 6 3 1 5 -13 5 -14 0 -19 -2 -12 -5z"/>
<path d="M4093 5203 c-27 -10 -11 -23 27 -23 22 0 40 4 40 10 0 5 37 11 83 13
72 3 69 3 -28 4 -60 1 -116 -1 -122 -4z"/>
<path d="M4818 5203 c12 -2 32 -2 45 0 12 2 2 4 -23 4 -25 0 -35 -2 -22 -4z"/>
<path d="M4978 5203 c12 -2 32 -2 45 0 12 2 2 4 -23 4 -25 0 -35 -2 -22 -4z"/>
<path d="M5208 5203 c7 -3 16 -2 19 1 4 3 -2 6 -13 5 -11 0 -14 -3 -6 -6z"/>
<path d="M3181 5158 c-1 -10 -5 -18 -11 -18 -5 0 -10 -5 -10 -12 0 -8 6 -7 16
4 9 9 14 22 11 30 -4 9 -6 7 -6 -4z"/>
<path d="M3200 5150 c0 -11 0 -23 0 -27 0 -4 17 -6 37 -4 19 1 38 -2 42 -7 11
-17 81 -19 81 -2 0 6 -18 10 -40 10 -29 0 -40 4 -40 15 0 10 -11 15 -32 16
-31 1 -32 1 -8 9 24 8 23 8 -7 9 -27 1 -33 -3 -33 -19z"/>
<path d="M3002 5111 c-12 -21 -22 -43 -22 -47 0 -5 12 11 25 35 14 24 24 45
22 47 -2 2 -13 -14 -25 -35z"/>
<path d="M4078 5128 c-3 -8 -40 -12 -119 -12 -68 0 -98 -3 -74 -7 28 -4 14 -6
-45 -6 -62 -1 -77 2 -55 8 17 4 -26 5 -100 1 -71 -3 -148 -5 -170 -4 -22 1
-35 -2 -28 -6 8 -5 -4 -13 -31 -21 -24 -7 -54 -23 -66 -37 -13 -13 -27 -21
-33 -17 -6 3 -7 1 -3 -6 4 -7 -2 -20 -16 -32 -13 -11 -3 -7 22 8 96 62 -53 58
1950 58 1727 0 1837 -1 1865 -17 17 -10 35 -18 40 -18 6 0 21 -14 35 -32 14
-17 31 -37 38 -44 6 -7 12 -17 12 -23 0 -6 4 -11 8 -11 5 0 19 -35 33 -77 23
-76 24 -88 23 -378 l0 -300 -28 -75 c-16 -41 -41 -102 -56 -135 -64 -137 -84
-236 -78 -382 4 -92 10 -120 39 -193 18 -47 36 -87 40 -90 4 -3 19 -28 32 -55
39 -77 50 -184 45 -437 -4 -217 -4 -224 -30 -275 -36 -70 -72 -108 -132 -139
-45 -23 -47 -25 -18 -20 29 5 31 4 23 -12 -8 -15 -5 -18 17 -20 21 -1 24 0 12
8 -11 8 -9 9 10 5 19 -4 37 4 75 33 27 21 55 48 61 60 6 12 21 30 33 41 17 15
20 25 15 47 -5 17 -3 25 3 21 7 -4 13 18 17 61 14 143 21 188 33 207 11 20 11
20 34 0 12 -11 19 -14 15 -8 -4 8 11 30 39 58 25 25 45 54 45 64 0 10 6 21 14
24 8 3 16 29 20 66 5 40 12 64 23 70 12 7 17 24 17 69 l1 60 38 -20 c43 -22
125 -31 177 -19 l35 8 -52 7 c-91 13 -259 109 -247 140 3 8 -3 20 -13 26 -14
9 -17 21 -14 52 2 30 0 39 -9 33 -6 -4 -3 8 7 26 14 27 18 57 18 149 0 223 -7
521 -14 602 -7 72 -5 87 11 110 19 28 24 53 8 43 -6 -3 -10 4 -10 17 0 17 -2
20 -9 9 -5 -8 -7 -21 -4 -30 3 -11 2 -12 -4 -4 -9 13 -71 15 -78 3 -10 -17
-57 4 -67 29 -6 14 -12 123 -15 241 -5 245 -5 250 -14 244 -4 -2 -10 8 -14 24
-3 15 -14 35 -22 45 -9 9 -12 17 -8 17 16 0 -90 97 -124 113 -49 24 -80 27
-316 31 -115 2 -221 7 -235 10 -22 6 -22 5 -5 -4 18 -9 -309 -7 -797 3 -53 1
-91 -1 -85 -5 7 -4 -23 -8 -65 -8 -54 0 -78 4 -78 12 0 9 -3 9 -12 0 -15 -15
-148 -16 -148 -2 0 6 -45 9 -117 9 -88 -1 -108 -4 -78 -10 29 -6 21 -6 -30 -3
-269 18 -234 17 -775 15 -229 -1 -356 3 -358 9 -5 14 -79 13 -84 -2z m-30 -25
c-10 -2 -26 -2 -35 0 -10 3 -2 5 17 5 19 0 27 -2 18 -5z m3544 -845 c-7 -7
-12 -8 -12 -2 0 14 12 26 19 19 2 -3 -1 -11 -7 -17z m-32 -75 c-11 -17 -11
-17 -6 0 3 10 6 24 7 30 0 9 2 9 5 0 3 -7 0 -20 -6 -30z m-12 -71 c0 -54 -26
-166 -27 -119 -1 29 20 167 25 167 2 0 3 -21 2 -48z m-31 -219 c-3 -10 -5 -2
-5 17 0 19 2 27 5 18 2 -10 2 -26 0 -35z m77 -489 c9 -24 2 -26 -12 -4 -7 11
-8 20 -3 20 5 0 12 -7 15 -16z m273 -230 c-3 -3 -12 -4 -19 -1 -8 3 -5 6 6 6
11 1 17 -2 13 -5z"/>
<path d="M6328 5113 c7 -3 16 -2 19 1 4 3 -2 6 -13 5 -11 0 -14 -3 -6 -6z"/>
<path d="M6933 5113 c9 -2 25 -2 35 0 9 3 1 5 -18 5 -19 0 -27 -2 -17 -5z"/>
<path d="M2939 4949 c0 -8 -25 -43 -55 -79 -30 -36 -134 -166 -231 -290 -97
-124 -217 -268 -268 -320 -135 -140 -180 -242 -192 -435 -7 -125 14 -240 62
-340 38 -78 111 -169 127 -159 7 4 8 2 4 -4 -7 -11 74 -77 131 -106 138 -70
280 -90 381 -54 31 12 32 14 32 65 l0 54 -78 -41 c-66 -35 -89 -41 -146 -44
-37 -1 -70 2 -73 6 -2 5 -22 16 -44 24 -21 9 -36 20 -33 25 3 5 -6 5 -19 0
-23 -9 -25 -8 -22 17 2 15 -4 41 -13 57 -12 24 -16 72 -17 235 -1 113 -8 248
-14 300 -11 85 -10 315 1 422 8 77 106 123 263 123 88 0 106 -3 150 -26 l50
-26 -3 173 c-2 95 1 230 7 300 6 71 8 130 6 133 -3 2 -5 -2 -6 -10z"/>
<path d="M3929 4630 c-23 -12 -42 -33 -53 -59 -10 -22 -23 -39 -29 -38 -24 5
-56 -77 -63 -161 -7 -85 8 -214 27 -238 5 -6 43 -17 84 -24 72 -12 75 -14 87
-49 15 -41 19 -648 5 -714 -6 -29 -17 -43 -48 -63 -22 -13 -47 -40 -56 -59 -9
-19 -20 -32 -24 -29 -4 2 -20 -17 -35 -42 -22 -38 -29 -63 -32 -128 -5 -102
13 -225 36 -249 19 -18 102 -31 102 -15 0 5 167 8 408 7 392 -2 434 0 495 23
35 13 35 29 0 19 -15 -4 -54 -3 -87 1 -33 5 -219 7 -414 6 l-354 -3 -22 26
c-22 25 -23 37 -25 171 -1 80 1 168 5 198 l7 53 61 -8 c34 -4 75 -8 91 -9 l30
-1 0 469 c1 392 -2 471 -14 483 -9 9 -32 14 -65 13 -76 -2 -81 -2 -105 19 -21
18 -21 24 -17 172 5 178 11 214 40 234 29 21 8 18 -35 -5z"/>
<path d="M5632 4567 c-24 -13 -39 -27 -35 -32 4 -4 2 -5 -5 -1 -21 12 -111
-59 -205 -162 -28 -31 -55 -56 -59 -55 -17 6 -107 -149 -151 -259 -89 -224
-86 -565 7 -803 30 -75 82 -174 113 -214 30 -37 73 -83 73 -77 0 3 16 -12 37
-34 25 -29 39 -38 47 -30 15 15 30 12 17 -4 -10 -12 -7 -18 17 -30 16 -8 32
-12 35 -9 4 3 13 1 20 -6 8 -6 26 -12 41 -13 16 -2 25 -7 22 -14 -3 -8 14 -19
41 -28 53 -18 98 -22 73 -7 -8 6 -18 7 -24 4 -5 -3 -6 -1 -2 6 8 12 66 6 99
-11 52 -27 263 -29 372 -4 70 16 263 105 285 131 9 11 7 12 -9 8 -12 -3 -21
-10 -21 -15 0 -5 -4 -6 -10 -3 -5 3 -10 2 -10 -4 0 -5 -21 -17 -47 -27 -27
-10 -52 -21 -58 -25 -5 -4 -46 -15 -90 -25 -141 -32 -293 -22 -445 29 -43 14
-181 103 -232 149 -105 94 -227 303 -263 453 -43 176 -30 494 25 620 4 11 16
41 27 67 10 27 21 48 26 48 4 0 7 6 7 14 0 31 57 112 147 206 52 55 101 100
109 100 8 0 14 6 14 14 0 8 15 26 33 40 39 31 35 32 -21 3z m-337 -322 c-19
-33 -35 -55 -35 -49 0 14 61 117 66 111 2 -2 -11 -30 -31 -62z m352 -1431 c-3
-3 -12 -4 -19 -1 -8 3 -5 6 6 6 11 1 17 -2 13 -5z"/>
<path d="M5950 4183 c-52 -17 -134 -79 -124 -94 3 -5 -2 -22 -11 -40 -9 -17
-14 -33 -12 -36 3 -2 8 5 12 16 3 11 22 34 41 50 35 31 61 41 48 19 -5 -8 0
-7 11 2 10 8 16 10 12 4 -4 -7 10 -20 37 -32 62 -30 127 -108 144 -174 22 -91
27 -330 8 -422 -9 -44 -21 -85 -27 -92 -6 -7 -8 -18 -5 -23 7 -11 -44 -37 -84
-44 -17 -3 -12 -5 14 -6 37 -1 39 -2 20 -16 -18 -13 -16 -14 22 -15 68 0 125
26 166 77 58 73 72 139 71 338 -1 304 -37 401 -177 470 -48 24 -124 32 -166
18z"/>
<path d="M6791 3454 c0 -11 3 -14 6 -6 3 7 2 16 -1 19 -3 4 -6 -2 -5 -13z"/>
<path d="M2998 3377 l-27 -52 -5 -335 c-8 -506 7 -630 91 -758 69 -104 197
-195 318 -227 69 -18 87 -30 30 -20 -155 26 -219 57 -312 151 -80 81 -131 185
-148 298 l-11 81 -11 -40 c-7 -26 -11 -32 -12 -17 -1 25 -18 30 -23 7 -3 -13
-6 -13 -32 0 -15 8 -53 15 -82 15 -30 0 -54 4 -54 9 0 10 -68 16 -364 30 -121
6 -236 16 -255 21 -52 14 -286 13 -786 -5 -453 -16 -675 -32 -675 -46 0 -5
-18 -9 -40 -9 -22 0 -40 -4 -40 -10 0 -5 -21 -10 -47 -10 -26 0 -60 -4 -77 -9
-17 -6 -73 -14 -125 -19 -73 -7 -98 -14 -108 -28 -7 -10 -37 -24 -66 -31 -28
-8 -53 -18 -55 -23 -2 -6 -8 -10 -14 -10 -5 0 -23 -14 -39 -31 l-29 -31 0
-499 c0 -452 2 -499 16 -499 9 0 25 -11 36 -25 11 -14 26 -25 34 -25 8 0 17
-7 20 -15 4 -8 17 -15 30 -15 14 0 24 -6 24 -14 0 -9 26 -20 77 -31 43 -9 85
-23 93 -30 21 -17 47 -26 110 -35 30 -5 87 -16 125 -25 98 -23 157 -34 255
-45 47 -6 110 -15 140 -20 30 -6 111 -14 179 -20 68 -6 151 -14 186 -20 34 -5
151 -14 261 -20 109 -5 260 -14 334 -20 195 -14 657 -18 1015 -9 793 21 1163
41 1212 67 12 7 67 15 122 18 56 4 104 11 107 15 3 5 18 6 34 2 17 -3 36 -1
42 4 7 6 47 13 88 17 41 3 86 8 100 11 89 15 154 27 168 31 9 3 7 -1 -5 -8
-20 -12 -18 -13 25 -14 36 -1 41 1 22 6 -23 7 -23 8 -3 9 12 1 24 -3 28 -8 3
-6 13 -10 23 -10 9 0 206 -6 437 -13 636 -18 1049 -17 1160 4 98 19 169 38
163 43 -1 2 -34 -3 -73 -11 -38 -7 -124 -16 -190 -20 -104 -6 -122 -5 -134 9
-10 13 -12 95 -6 447 5 249 12 430 17 430 5 0 6 5 3 10 -4 6 6 11 22 11 26 2
25 2 -7 9 -34 7 69 10 632 15 247 3 260 4 335 29 43 14 92 35 108 46 38 25 30
25 -21 1 -86 -41 -150 -44 -1002 -43 -448 0 -816 3 -819 6 -4 3 48 6 115 6 80
0 122 4 122 11 0 7 -49 9 -155 7 -85 -3 -160 -1 -167 4 -7 4 26 8 75 8 48 0
87 4 87 8 0 4 -129 7 -287 6 -159 -1 -375 1 -480 4 l-193 5 0 39 c0 38 0 38
40 38 22 0 40 5 40 10 0 6 -18 10 -40 10 -22 0 -40 -4 -40 -10 0 -5 -18 -10
-40 -10 -29 0 -40 4 -40 15 0 13 -20 15 -120 15 -100 0 -120 -2 -120 -15 0
-12 -16 -15 -80 -15 l-80 0 0 -39 0 -38 -61 -7 c-105 -11 -99 -14 -99 54 l0
60 -139 0 c-76 0 -166 3 -200 6 -43 5 -61 3 -61 -5 0 -6 17 -11 40 -11 22 0
40 -4 40 -10 0 -5 -18 -10 -40 -10 l-40 0 0 -40 c0 -40 0 -40 -37 -40 -21 0
-45 -5 -53 -10 -12 -8 -11 -10 8 -10 12 0 22 -4 22 -10 0 -5 -10 -11 -22 -12
-13 -1 20 -5 72 -8 l95 -6 -95 -2 c-103 -2 -283 33 -258 50 9 6 7 8 -7 7 -44
-3 -55 1 -48 19 6 15 5 16 -12 2 -17 -14 -18 -13 -12 3 5 14 3 18 -11 15 -21
-4 -67 36 -68 60 -3 46 -5 52 -19 52 -20 0 -19 -10 2 -26 10 -7 14 -16 10 -20
-4 -4 -19 4 -34 18 -25 26 -25 26 -4 33 17 5 21 14 21 46 0 28 -4 39 -15 39
-13 0 -19 -22 -18 -67 1 -7 -4 -13 -9 -13 -10 0 -9 15 8 95 5 24 4 28 -6 18
-7 -6 -12 -23 -12 -37 0 -38 -25 -32 -26 6 0 18 -7 37 -15 43 -24 18 -47 319
-51 672 -3 226 -1 322 7 320 6 -1 11 15 12 36 1 20 1 37 1 37 -1 0 -13 -24
-28 -53z m29 -949 c-3 -8 -6 -5 -6 6 -1 11 2 17 5 13 3 -3 4 -12 1 -19z m1533
-313 l0 -45 -120 0 -120 0 0 45 0 45 120 0 120 0 0 -45z m-847 -42 c-7 -2 -19
-2 -25 0 -7 3 -2 5 12 5 14 0 19 -2 13 -5z m110 0 c-13 -2 -33 -2 -45 0 -13 2
-3 4 22 4 25 0 35 -2 23 -4z m-160 -20 c-13 -2 -33 -2 -45 0 -13 2 -3 4 22 4
25 0 35 -2 23 -4z m97 -3 c0 -5 -4 -10 -10 -10 -5 0 -10 5 -10 10 0 6 5 10 10
10 6 0 10 -4 10 -10z m799 5 c-10 -10 -570 -15 -564 -5 4 6 113 10 287 10 155
0 279 -2 277 -5z m561 -3 c0 -8 -391 -4 -399 4 -2 2 86 4 197 4 111 0 202 -4
202 -8z m123 1 c-24 -2 -43 -8 -43 -12 0 -5 -12 -6 -27 -3 l-28 6 30 7 c17 4
48 6 70 6 l40 0 -42 -4z m-1490 -30 c-7 -2 -21 -2 -30 0 -10 3 -4 5 12 5 17 0
24 -2 18 -5z m210 0 c-23 -2 -64 -2 -90 0 -26 2 -7 3 42 3 50 0 71 -1 48 -3z
m300 0 c-35 -2 -91 -2 -125 0 -35 2 -7 3 62 3 69 0 97 -1 63 -3z m200 0 c-13
-2 -33 -2 -45 0 -13 2 -3 4 22 4 25 0 35 -2 23 -4z m400 0 c-57 -2 -149 -2
-205 0 -57 1 -11 3 102 3 113 0 159 -2 103 -3z m240 0 c-13 -2 -33 -2 -45 0
-13 2 -3 4 22 4 25 0 35 -2 23 -4z m-776 -65 c0 -13 4 -220 8 -461 l8 -439
-39 7 c-199 33 -271 56 -281 93 -3 13 -3 59 1 103 6 72 5 79 -14 89 -28 15
-18 26 29 34 39 6 40 8 39 41 -1 20 6 43 15 53 10 10 17 28 17 40 0 12 4 22 9
22 5 0 12 10 16 23 8 28 17 49 49 119 14 31 26 62 26 67 0 6 7 11 15 11 8 0
15 9 15 21 0 11 4 18 9 15 10 -7 21 17 21 47 0 20 0 20 14 2 12 -17 14 -14 22
36 4 29 9 62 10 72 3 35 10 38 11 5z m410 15 c-20 -2 -52 -2 -70 0 -17 2 0 4
38 4 39 0 53 -2 32 -4z m1486 -220 c4 -124 7 -331 7 -460 0 -212 -2 -234 -17
-240 -25 -10 -269 33 -344 60 -54 19 -64 27 -75 57 -16 44 -17 91 -4 125 8 21
7 35 -5 58 -8 16 -15 31 -15 32 0 2 14 5 31 9 25 5 29 9 24 26 -3 11 -2 20 3
20 5 0 12 24 16 53 17 135 21 148 102 294 16 29 35 53 42 53 6 0 12 5 12 12 0
21 53 68 77 68 13 0 23 5 23 10 0 6 15 11 33 12 18 1 7 4 -28 8 l-60 7 60 3
60 3 -45 7 c-42 6 -40 7 26 8 l71 2 6 -227z m-1680 200 c-13 -2 -33 -2 -45 0
-13 2 -3 4 22 4 25 0 35 -2 23 -4z m97 -3 c0 -6 47 -10 121 -10 77 0 118 -4
114 -10 -3 -5 -2 -10 4 -10 14 0 93 -137 90 -158 -1 -9 0 -24 3 -32 18 -51 38
-133 44 -180 5 -36 14 -60 27 -71 18 -14 20 -28 21 -122 1 -99 0 -107 -24
-132 -85 -92 -263 -144 -512 -151 l-147 -4 -7 47 c-4 27 -4 190 0 363 l6 315
32 40 c32 39 54 58 62 53 2 -2 12 4 22 13 11 9 40 20 66 23 26 4 49 13 52 21
6 17 26 20 26 5z m188 3 c-32 -2 -84 -2 -115 0 -32 2 -6 3 57 3 63 0 89 -1 58
-3z"/>
<path d="M6178 1963 c7 -3 16 -2 19 1 4 3 -2 6 -13 5 -11 0 -14 -3 -6 -6z"/>
<path d="M6178 1943 c6 -2 18 -2 25 0 6 3 1 5 -13 5 -14 0 -19 -2 -12 -5z"/>
<path d="M7640 3316 c0 -2 8 -10 18 -17 15 -13 16 -12 3 4 -13 16 -21 21 -21
13z"/>
<path d="M2530 3269 c0 -5 5 -7 10 -4 6 3 10 8 10 11 0 2 -4 4 -10 4 -5 0 -10
-5 -10 -11z"/>
<path d="M4705 3109 c-4 -6 -5 -13 -2 -16 3 -3 2 -16 -3 -29 -5 -13 -6 -24 -2
-24 4 0 5 -22 4 -50 -4 -50 -4 -50 26 -50 17 0 34 5 37 10 3 6 -1 10 -9 10
-20 0 -20 5 -2 33 7 12 17 46 20 75 l7 52 -35 0 c-19 0 -38 -5 -41 -11z"/>
<path d="M3023 2940 c0 -36 2 -50 4 -32 2 17 2 47 0 65 -2 17 -4 3 -4 -33z"/>
<path d="M6485 2950 c-4 -6 -11 -7 -17 -4 -7 4 -8 2 -4 -5 6 -9 11 -9 22 0 14
11 18 19 10 19 -3 0 -8 -5 -11 -10z"/>
<path d="M4730 2910 c-12 -8 -11 -10 8 -10 12 0 22 5 22 10 0 13 -11 13 -30 0z"/>
<path d="M5788 2763 c7 -3 16 -2 19 1 4 3 -2 6 -13 5 -11 0 -14 -3 -6 -6z"/>
<path d="M3993 2753 c15 -2 37 -2 50 0 12 2 0 4 -28 4 -27 0 -38 -2 -22 -4z"/>
<path d="M3033 2680 c0 -25 2 -35 4 -22 2 12 2 32 0 45 -2 12 -4 2 -4 -23z"/>
<path d="M3070 2391 c0 -17 18 -21 24 -6 3 9 0 15 -9 15 -8 0 -15 -4 -15 -9z"/>
<path d="M3723 2333 c125 -2 329 -2 455 0 125 1 22 2 -228 2 -250 0 -353 -1
-227 -2z"/>
<path d="M4558 2333 c45 -2 119 -2 165 0 45 1 8 3 -83 3 -91 0 -128 -2 -82 -3z"/>
<path d="M6578 2333 c46 -2 118 -2 160 0 42 1 5 3 -83 3 -88 0 -123 -2 -77 -3z"/>
<path d="M6908 2333 c28 -2 76 -2 105 0 28 2 5 3 -53 3 -58 0 -81 -1 -52 -3z"/>
<path d="M3300 2310 c0 -5 5 -10 10 -10 6 0 10 5 10 10 0 6 -4 10 -10 10 -5 0
-10 -4 -10 -10z"/>
<path d="M3348 2283 c7 -3 16 -2 19 1 4 3 -2 6 -13 5 -11 0 -14 -3 -6 -6z"/>
<path d="M3280 2262 c0 -18 5 -22 33 -21 20 1 25 3 12 6 -11 3 -26 12 -32 21
-12 14 -13 13 -13 -6z"/>
<path d="M3380 2239 c0 -5 5 -7 10 -4 6 3 10 8 10 11 0 2 -4 4 -10 4 -5 0 -10
-5 -10 -11z"/>
<path d="M3191 2224 c0 -11 3 -14 6 -6 3 7 2 16 -1 19 -3 4 -6 -2 -5 -13z"/>
<path d="M3190 2159 c0 -5 6 -9 14 -9 8 0 16 -4 18 -9 2 -4 11 -6 20 -2 14 5
10 9 -17 17 -19 6 -35 7 -35 3z"/>
<path d="M3440 2145 c0 -11 11 -15 40 -15 29 0 40 4 40 15 0 11 -11 15 -40 15
-29 0 -40 -4 -40 -15z"/>
<path d="M7460 2140 c-9 -6 -10 -10 -3 -10 6 0 15 5 18 10 8 12 4 12 -15 0z"/>
<path d="M7410 2100 c-8 -5 -12 -12 -9 -15 4 -3 12 1 19 10 14 17 11 19 -10 5z"/>
<path d="M3420 2071 l25 -8 -25 -5 c-19 -4 -17 -6 13 -7 41 -1 50 13 15 23
-33 8 -58 5 -28 -3z"/>
<path d="M6338 2033 c12 -2 32 -2 45 0 12 2 2 4 -23 4 -25 0 -35 -2 -22 -4z"/>
</g>
</svg>
